<svg xmlns="http://www.w3.org/2000/svg" viewBox="0 0 647.51 220.46"><defs><style>.cls-1{fill:#7ff;}.cls-2{fill:#29a9e1;}.cls-3{fill:#fff;}</style></defs><title>Asset 1</title><g id="Layer_2" data-name="Layer 2"><g id="Layer_1-2" data-name="Layer 1"><rect class="cls-1" x="236.96" width="139.87" height="18.84"/><path class="cls-2" d="M111,51.57C121.15,57.25,127.9,66.2,129.94,79h32.75V217.21h37.67V79H237V51.57Z"/><rect class="cls-2" x="253.77" y="51.57" width="1.02"/><path class="cls-2" d="M87.07,127.52,58.56,116.58c-15.67-5.92-19-12.07-19-22.09,0-9.57,4.37-18.91,21.06-18.91,14.13,0,20,8.88,20,24.15h35.44V95.17c0-31.21-23.88-43.74-56.76-43.74C24.4,51.43,2.57,67.61,2.57,99.27c0,27.11,15.15,39.18,48,49.21,24.4,7.51,32.87,13,32.87,27.79,0,13.66-10.78,20-22.09,20-19.51,0-24.39-9.79-24.39-25.05v-4.79H.23L0,173.08c0,30.07,16.44,47.38,58.3,47.38,40.07,0,63.7-15.49,63.7-49.89C122,150.75,114.81,138.22,87.07,127.52Z"/><polygon class="cls-2" points="291.44 189.84 291.44 145.3 353.17 145.3 353.17 117.92 291.44 117.92 291.44 78.95 360.03 78.95 360.03 51.58 254.79 51.58 254.79 78.95 253.77 78.95 253.77 217.21 360.03 217.21 360.03 189.84 291.44 189.84"/><rect class="cls-2" x="253.77" y="51.57" width="1.02" height="27.37"/><polygon class="cls-2" points="414.5 189.84 414.5 51.58 377.34 51.58 377.34 78.95 376.83 78.95 376.83 189.84 376.83 217.21 379.96 217.21 479.02 217.21 479.04 217.07 479.04 189.84 414.5 189.84"/><rect class="cls-2" x="376.83" y="51.57" width="0.51" height="27.37"/><polygon class="cls-3" points="479.04 217.07 479.02 217.21 479.04 217.21 479.04 217.07"/><polygon class="cls-2" points="533.77 51.58 533.51 51.72 533.51 51.58 495.85 51.58 495.85 217.07 495.85 217.21 533.51 217.21 533.51 217.07 533.51 115.28 603.6 217.07 647.51 217.07 533.77 51.58"/></g></g></svg>