<svg xmlns="http://www.w3.org/2000/svg" viewBox="0 0 654.1 222.7"><defs><style>.cls-1{fill:#fff;}</style></defs><title>Asset 1</title><g id="Layer_2" data-name="Layer 2"><g id="Layer_1-2" data-name="Layer 1"><rect class="cls-1" x="239.38" width="141.29" height="19.03"/><path class="cls-1" d="M112.17,52.1c10.21,5.74,17,14.78,19.09,27.65h33.09V219.42h38V79.75h37V52.1Z"/><rect class="cls-1" x="256.35" y="52.1" width="1.03"/><path class="cls-1" d="M88,128.82l-28.8-11c-15.83-6-19.2-12.2-19.2-22.32,0-9.67,4.41-19.1,21.27-19.1,14.27,0,20.24,9,20.24,24.39h35.8v-4.6C117.27,64.61,93.14,52,59.93,52,24.65,52,2.59,68.29,2.59,100.28c0,27.38,15.31,39.58,48.52,49.71,24.65,7.59,33.21,13.11,33.21,28.07,0,13.81-10.89,20.25-22.31,20.25-19.72,0-24.65-9.89-24.65-25.31v-4.84H.23L0,174.84c0,30.37,16.6,47.86,58.9,47.86,40.47,0,64.34-15.64,64.34-50.39C123.24,152.29,116,139.63,88,128.82Z"/><polygon class="cls-1" points="294.4 191.77 294.4 146.78 356.76 146.78 356.76 119.12 294.4 119.12 294.4 79.75 363.69 79.75 363.69 52.1 257.39 52.1 257.39 79.75 256.35 79.75 256.35 219.42 363.69 219.42 363.69 191.77 294.4 191.77"/><rect class="cls-1" x="256.35" y="52.1" width="1.03" height="27.65"/><polygon class="cls-1" points="418.71 191.77 418.71 52.1 381.18 52.1 381.18 79.75 380.67 79.75 380.67 191.77 380.67 219.42 383.82 219.42 483.89 219.42 483.92 219.28 483.92 191.77 418.71 191.77"/><rect class="cls-1" x="380.67" y="52.1" width="0.51" height="27.65"/><polygon class="cls-1" points="483.92 219.28 483.89 219.42 483.92 219.42 483.92 219.28"/><polygon class="cls-1" points="539.21 52.1 538.94 52.24 538.94 52.1 500.89 52.1 500.89 219.28 500.89 219.42 538.94 219.42 538.94 219.28 538.94 116.46 609.74 219.28 654.1 219.28 539.21 52.1"/></g></g></svg>